<?xml version="1.0" encoding="utf-8"?>
<!-- Generator: Adobe Illustrator 23.0.4, SVG Export Plug-In . SVG Version: 6.00 Build 0)  -->
<svg version="1.1" id="Layer_1" xmlns="http://www.w3.org/2000/svg" xmlns:xlink="http://www.w3.org/1999/xlink" x="0px" y="0px"
	 viewBox="0 0 32 32" style="enable-background:new 0 0 32 32;" xml:space="preserve">
<style type="text/css">
	.st0{fill:none;}
	.st1{fill:#FFFFFF;}
</style>
<path class="st0" d="M4,4h24v24H4V4z"/>
<path class="st1" d="M16,6C10.5,6,6,10.5,6,16s4.5,10,10,10s10-4.5,10-10S21.5,6,16,6z M22.9,12H20c-0.3-1.2-0.8-2.4-1.4-3.6
	C20.4,9.1,22,10.3,22.9,12z M16,8c0.8,1.2,1.5,2.5,1.9,4h-3.8C14.5,10.6,15.2,9.2,16,8z M8.3,18C8.1,17.4,8,16.7,8,16
	c0-0.7,0.1-1.4,0.3-2h3.4c-0.1,0.7-0.1,1.3-0.1,2c0,0.7,0.1,1.3,0.1,2H8.3z M9.1,20h3c0.3,1.2,0.8,2.5,1.4,3.6
	C11.6,22.9,10,21.7,9.1,20z M12,12H9c1-1.7,2.5-2.9,4.3-3.6C12.8,9.6,12.4,10.8,12,12z M16,24c-0.8-1.2-1.5-2.5-1.9-4h3.8
	C17.5,21.4,16.8,22.8,16,24z M18.3,18h-4.6c-0.1-0.7-0.2-1.3-0.2-2c0-0.7,0.1-1.4,0.2-2h4.7c0.1,0.6,0.2,1.3,0.2,2
	C18.6,16.7,18.4,17.3,18.3,18z M18.6,23.6c0.6-1.1,1.1-2.3,1.4-3.6h2.9C22,21.6,20.4,22.9,18.6,23.6z M20.4,18
	c0.1-0.7,0.1-1.3,0.1-2c0-0.7-0.1-1.3-0.1-2h3.4c0.2,0.6,0.3,1.3,0.3,2c0,0.7-0.1,1.4-0.3,2H20.4z"/>
</svg>
