<?xml version="1.0" encoding="utf-8"?>
<!-- Generator: Adobe Illustrator 23.0.4, SVG Export Plug-In . SVG Version: 6.00 Build 0)  -->
<svg version="1.1" id="Layer_1" xmlns="http://www.w3.org/2000/svg" xmlns:xlink="http://www.w3.org/1999/xlink" x="0px" y="0px"
	 viewBox="0 0 36 36" style="enable-background:new 0 0 36 36;" xml:space="preserve">
<style type="text/css">
	.st0{fill:#FFFFFF;}
	.st1{fill:none;}
</style>
<path class="st0" d="M25,14H11c-1.7,0-3,1.3-3,3v6h4v4h12v-4h4v-6C28,15.3,26.7,14,25,14z M22,25h-8v-5h8V25z M25,18
	c-0.5,0-1-0.4-1-1s0.5-1,1-1s1,0.4,1,1S25.5,18,25,18z M24,9H12v4h12V9z"/>
<path class="st1" d="M6,6h24v24H6V6z"/>
</svg>
