<?xml version="1.0" encoding="utf-8"?>
<!-- Generator: Adobe Illustrator 23.0.4, SVG Export Plug-In . SVG Version: 6.00 Build 0)  -->
<svg version="1.1" id="Layer_1" xmlns="http://www.w3.org/2000/svg" xmlns:xlink="http://www.w3.org/1999/xlink" x="0px" y="0px"
	 viewBox="0 0 32 32" style="enable-background:new 0 0 32 32;" xml:space="preserve">
<style type="text/css">
	.st0{fill:none;}
	.st1{fill:#FFFFFF;}
</style>
<path class="st0" d="M4,4h24v24H4V4z"/>
<path class="st1" d="M24,17H8c-0.5,0-1,0.4-1,1v6c0,0.5,0.5,1,1,1h16c0.5,0,1-0.5,1-1v-6C25,17.4,24.5,17,24,17z M11,23
	c-1.1,0-2-0.9-2-2s0.9-2,2-2s2,0.9,2,2S12.1,23,11,23z M24,7H8C7.5,7,7,7.5,7,8v6c0,0.6,0.5,1,1,1h16c0.5,0,1-0.4,1-1V8
	C25,7.5,24.5,7,24,7z M11,13c-1.1,0-2-0.9-2-2s0.9-2,2-2s2,0.9,2,2S12.1,13,11,13z"/>
</svg>
